<?xml version="1.0" encoding="utf-8"?>
<!-- Generator: Adobe Illustrator 22.0.1, SVG Export Plug-In . SVG Version: 6.00 Build 0)  -->
<svg version="1.1" id="Calque_1" xmlns="http://www.w3.org/2000/svg" xmlns:xlink="http://www.w3.org/1999/xlink" x="0px" y="0px"
	 viewBox="0 0 432 432" style="enable-background:new 0 0 432 432;" xml:space="preserve">
<style type="text/css">
	.st0{fill:#7C4F6A;}
	.st1{fill:#3C3C3B;}
	.st2{fill:#C6C6C5;}
	.st3{fill:#575756;}
	.st4{fill:#C99D66;}
	.st5{fill:#919DAF;}
	.st6{fill:#474F5F;}
	.st7{fill:#D18736;}
	.st8{fill:#353534;}
	.st9{fill:#7D8A6B;}
	.st10{fill:#859A45;}
	.st11{fill:#94678D;}
	.st12{fill:#1D1D1B;}
	.st13{fill:#74877B;}
	.st14{fill:#9A645A;}
	.st15{fill:#7B756E;}
	.st16{fill:#989E91;}
	.st17{fill:#E1B165;}
	.st18{fill:#C35F7A;}
	.st19{fill:#794751;}
	.st20{fill:#A0392C;}
	.st21{fill:#253F4A;}
	.st22{fill:#D9D9D9;}
	.st23{fill:#0D0D0D;}
	.st24{fill:#C53E46;}
	.st25{fill:#F5B903;}
	.st26{fill:#DEAFB3;}
	.st27{fill:#DEB969;}
	.st28{fill:#C4B29A;}
	.st29{fill:#ECACBE;}
	.st30{fill:#F29100;}
	.st31{fill:#E20613;}
	.st32{fill:#35A8E0;}
	.st33{fill:#544841;}
	.st34{fill:#1A1A1A;}
	.st35{fill:#FFFFFF;}
	.st36{fill:#E884A9;}
	.st37{fill:#D17098;}
	.st38{fill:#F8AF3C;}
	.st39{fill:#C0282E;}
	.st40{fill:#333333;}
	.st41{fill:#B3CBDB;}
	.st42{fill:#DB90AF;}
	.st43{fill:#9E7BB5;}
	.st44{fill:#CCCBCB;}
	.st45{fill:#60AE9F;}
	.st46{fill:#AD4659;}
	.st47{fill:#8A916D;}
	.st48{fill:#634E42;}
	.st49{fill:#9FB2B8;}
	.st50{fill:#AF8368;}
	.st51{fill:#977AA5;}
	.st52{fill:#BD8193;}
	.st53{fill:#91B6B3;}
	.st54{fill:#2E2927;}
	.st55{fill:#F08984;}
	.st56{fill:#C0924D;}
	.st57{fill:#9E2716;}
	.st58{fill:#C32625;}
	.st59{fill:#C6A981;}
	.st60{fill:#4F789E;}
	.st61{fill:#D1B567;}
	.st62{fill:#CDA065;}
	.st63{fill:#D6D6D6;}
	.st64{fill:#BD1622;}
	.st65{fill:#E4BD7A;}
	.st66{fill:#97AA23;}
	.st67{fill:#807B71;}
	.st68{fill:#795A5F;}
	.st69{fill:#4F4D70;}
	.st70{fill:#21375C;}
	.st71{fill:#B1B0B0;}
	.st72{fill:#B6C8A3;}
	.st73{fill:#706F74;}
	.st74{fill:#8D9189;}
	.st75{fill:#988388;}
	.st76{fill:#A09194;}
	.st77{fill:#D6BF93;}
	.st78{fill:#92999D;}
	.st79{fill:#4C8598;}
	.st80{fill:#ACA096;}
	.st81{fill:#476C58;}
	.st82{fill:#A24F4D;}
	.st83{fill:#A0C69A;}
	.st84{fill:#BB6C8D;}
	.st85{fill:#A63338;}
	.st86{fill:#CE995D;}
	.st87{fill:#B2A592;}
	.st88{fill:#D2A895;}
	.st89{fill:#D5A354;}
	.st90{fill:#BF9C63;}
	.st91{fill:#99A8D6;}
	.st92{fill:#F8B133;}
	.st93{fill:#F5A100;stroke:#12100B;stroke-miterlimit:10;}
	.st94{fill:#F5A100;}
	.st95{fill:#E84E1B;}
	.st96{fill:#8A4738;}
	.st97{fill:#C79960;}
	.st98{fill:#987C9A;}
	.st99{fill:#A9B8D0;}
	.st100{fill:#E5A148;}
	.st101{fill:#97B384;}
	.st102{fill:#9DBDD7;}
	.st103{fill:#DCA26C;}
	.st104{fill:#517797;}
	.st105{fill:#847193;}
	.st106{fill:#76C1A3;}
	.st107{fill:#E89955;}
	.st108{fill:#92A753;}
	.st109{fill:#CDABB3;}
	.st110{fill:#938A7C;}
	.st111{fill:#E0C291;}
	.st112{fill:#ADCCDF;}
	.st113{fill:#A0AE84;}
	.st114{fill:#E28E8E;}
	.st115{fill:#A3B6C4;}
	.st116{fill:#7C96A9;}
	.st117{fill:#55A2D9;}
	.st118{fill:#A2A3A6;}
	.st119{fill:#9C9B9B;}
	.st120{fill:#7D8597;}
	.st121{fill:#8DACBF;}
	.st122{fill:#C78792;}
	.st123{fill:#7B434B;}
	.st124{fill:#E7B6C4;}
	.st125{fill:#9E6572;}
	.st126{fill:#E3C1CA;}
	.st127{fill:#D0798B;}
	.st128{fill:#EA94AA;}
	.st129{fill:#C16E75;}
	.st130{fill:#A79FA2;}
	.st131{fill:#485642;}
	.st132{fill:#B38D96;}
	.st133{fill:#7D8075;}
	.st134{fill:#C9A57C;}
	.st135{fill:#A8ACB4;}
	.st136{fill:#8D7F92;}
	.st137{fill:#B0889A;}
	.st138{fill:#686767;}
	.st139{fill:#BF9AB2;}
	.st140{fill:#959FB3;}
	.st141{fill:#877680;}
	.st142{fill:#D2B155;}
	.st143{fill:#CCA3A3;}
	.st144{fill:#739181;}
	.st145{fill:#98877E;}
	.st146{fill:#58533C;}
	.st147{fill:#B69D8A;}
	.st148{fill:#746671;}
	.st149{fill:#ACB884;}
</style>
<g>
	<g>
		<path class="st20" d="M275.3,186.8c1.7,0,3.4,0,5.1,0c2.1,0,4.2,0.3,6.3,0.9c0.7,0.2,1.4,0.5,1.9,1c1,0.7,0.9,1.5,0,2.3
			c-2.5,1.9-5,3.9-7.1,6.2c-6.4,6.8-10.8,14.7-12.8,23.7c-0.8,3.5-0.8,7.1-0.5,10.7c0.1,0.9,0.2,1.7,0.2,2.6c0.1,1.6-0.6,2.6-2.2,3
			c-3.5,0.8-6.9,1.6-10.5,1.9c-4,0.4-8,0.4-12,0.3c-3.7-0.2-7.4-0.5-11.2-0.8c-3.8-0.4-7.7-0.8-11.5-1.3c-2.9-0.4-5.8-0.8-8.6-1.2
			c-2-0.3-4-0.4-5.9-0.6c-3.3-0.3-6.6-0.5-9.8-0.7c-4-0.2-8-0.4-12.1-0.1c-2.3,0.2-4.6,0.2-6.8,0.5c-2.5,0.3-4.9,0.7-7.4,1
			c-3.7,0.5-7.4,1.3-11,2.3c-1.4,0.4-2.8,0.9-4.2,1.3c-0.8,0.2-1.5,0.4-2.3,0.6c-1.3,0.3-2.4-0.1-3.3-1.2c-0.9-1.2-1.6-2.5-2.2-3.9
			c-1-2.3-1.9-4.7-2.3-7.3c-0.3-1.6,0.1-3.2,1.3-4.3c1-0.9,2.1-1.8,3.3-2.5c10.1-6.2,20.8-11.5,32-15.5c8.6-3.1,17.2-6.2,26.1-8.6
			c6.3-1.7,12.7-3.1,19.1-4.3c4.5-0.9,9-1.6,13.4-2.3c3.7-0.6,7.4-1.1,11.2-1.6c3.6-0.5,7.2-0.9,10.7-1.2c4.4-0.4,8.8-0.6,13.2-0.9
			C275.3,186.8,275.3,186.8,275.3,186.8z"/>
		<path class="st21" d="M230.9,255.8c-3.1-0.1-6.7-0.2-10.3-0.5c-3-0.2-6-0.7-9-1c-3-0.4-6-0.8-9-1.2c-2.7-0.4-5.3-0.8-8-1.2
			c-2.1-0.3-4.2-0.6-6.3-0.9c-2.8-0.3-5.7-0.7-8.5-0.9c-2.6-0.2-5.2-0.1-7.7-0.1c-2.5,0.1-5.1,0.2-7.6,0.4
			c-5.2,0.5-10.1,1.7-14.9,3.8c-1.9,0.9-3.7,2.1-5.2,3.6c-0.6,0.6-1.3,1-2.1,0.9c-1.4-0.1-2.2-1.4-1.7-2.8c0.1-0.4,0.4-0.9,0.7-1.3
			c1.6-2.4,3.8-4.1,6.1-5.8c4.7-3.4,9.9-5.4,15.3-7.1c3-0.9,6-1.6,9.1-2c1.9-0.2,3.7-0.4,5.6-0.5c3.2-0.1,6.5-0.2,9.7-0.1
			c4.4,0.1,8.8,0.4,13.1,0.9c3.6,0.5,7.2,1.1,10.7,1.6c2.9,0.4,5.8,0.7,8.7,1c3,0.3,6,0.6,9,0.7c4.5,0.2,9,0.3,13.6,0.2
			c2.6,0,5.1-0.5,7.7-0.8c1.8-0.2,3.6-0.4,5.4-0.6c2-0.3,4-0.6,5.9-0.8c1.9-0.3,3.9-0.4,5.7-0.9c2.6-0.6,5.2-1.3,7.8-2
			c3.4-1,6.7-1.9,10-3c3.6-1.2,6.9-3.1,10-5.3c1.1-0.8,2.3-1.5,3.5-2.2c0.3-0.2,0.6-0.3,1-0.4c1-0.3,1.8,0.6,1.5,1.6
			c-0.1,0.4-0.4,0.8-0.7,1.2c-0.8,0.9-1.6,1.9-2.5,2.7c-2.2,2-4.8,3.7-7.3,5.4c-6.3,4.3-13,7.5-20.1,10.3c-5.8,2.3-11.7,4-17.8,5.2
			c-2.1,0.4-4.1,0.6-6.2,0.9c-2.4,0.3-4.8,0.6-7.2,0.7C236.6,255.7,234,255.7,230.9,255.8z"/>
		<path class="st22" d="M257.7,184.9c-1.5,0.2-2.9,0.4-4.4,0.6c-2.9,0.4-5.9,0.8-8.8,1.2c-3.4,0.5-6.8,1.1-10.3,1.7
			c-15.1,2.7-29.9,6.2-44.3,11.6c-6.7,2.5-13.5,5-20,7.9c-3,1.4-5.9,3-8.9,4.5c-0.3,0.2-0.6,0.3-1,0.5c-0.2-2.9-0.7-5.7-0.2-8.5
			c0.2-1.1,0.6-2.1,1.2-3c1-1.6,2.3-2.9,3.8-4c1.8-1.3,3.7-2.4,5.8-3.3c4.4-2.1,9-3.6,13.6-5.2c7.6-2.5,15.3-5,22.9-7.5
			c6.2-2,12.4-3.8,18.6-5.7c3.9-1.2,7.7-2.5,11.6-3.7c2.6-0.8,5.2-1.4,7.9-1.7c1.4-0.2,2.8-0.2,4.2,0.1c2.2,0.5,3.8,1.8,4.9,3.8
			c0.9,1.7,1.5,3.5,2,5.3c0.4,1.6,0.8,3.2,1.2,4.8C257.7,184.5,257.7,184.7,257.7,184.9z"/>
		<path class="st21" d="M226.7,271.9c-4,0-7.9-0.3-11.9-0.8c-3.2-0.4-6.4-0.8-9.6-1.4c-5.3-1-10.6-2.1-16-3.3
			c-5.4-1.2-10.8-2.4-16.2-3.6c-1.6-0.4-3.2-0.7-4.9-1c-1.4-0.2-2.9-0.3-4.4-0.3c-3.3,0.1-6.6,0.5-9.7,1.8c-1.3,0.5-2.4,0.2-2.9-0.8
			c-0.5-1-0.1-2.1,1-2.9c2-1.3,4.1-2.2,6.3-2.9c3.5-1.1,7.1-1.9,10.8-2.3c3.1-0.4,6.2-0.3,9.3,0.1c2,0.2,4,0.4,6.1,0.6
			c1.8,0.2,3.6,0.5,5.5,0.8c3.4,0.5,6.8,1.1,10.3,1.6c4.8,0.7,9.6,1.3,14.5,1.9c2.9,0.3,5.8,0.6,8.6,0.8c6.1,0.6,12.1,0.8,18.2,0.7
			c2.5,0,5.1-0.3,7.6-0.6c4.2-0.5,8.4-1.4,12.4-2.8c1.3-0.5,2.5-1,3.8-1.5c2-0.7,3.9-1.4,5.9-2.1c0.3-0.1,0.7-0.2,1-0.2
			c1.2,0.1,1.8,1.2,1.3,2.3c-0.2,0.5-0.6,1-1,1.4c-1.1,1.3-2.5,2.2-4,3.1c-3.2,1.8-6.6,3.3-10,4.7c-5.5,2.4-11.3,4-17.2,5.1
			c-3.1,0.6-6.3,1-9.5,1.1C230.4,271.8,228.6,271.8,226.7,271.9z"/>
		<path class="st21" d="M209.6,164.1c0.8-0.1,1.5-0.3,2.3-0.4c0.5,0,1,0,1.4,0.1c0.7,0.2,0.8,0.9,0.3,1.4c-0.3,0.3-0.8,0.6-1.2,0.7
			c-0.7,0.3-1.5,0.5-2.3,0.7c0,0.3,0,0.5,0,0.6c0.2,0.9,0.4,1.8,0.7,2.8c0.8-0.2,1.6-0.3,2.3-0.5c2.5-0.5,4.9-1.1,7.4-1.6
			c1-0.2,1.9-0.3,2.9-0.2c1,0.2,1.8,0.7,2.5,1.4c0.8,0.9,1.3,2,1.8,3.2c-0.4,0.1-0.7,0.3-1,0.4c-6.5,2-12.9,3.9-19.4,5.9
			c-3.2,1-6.4,2.1-9.6,3.1c-0.3,0.1-0.5,0.2-0.9,0.3c-0.3-2-0.4-4,0.4-5.9c0.4-0.9,1.1-1.6,2-2c1-0.6,2.1-1.1,3.2-1.5
			c1.2-0.5,2.4-0.9,3.7-1.3c0.2-0.1,0.4-0.2,0.7-0.3c-0.2-1.1-0.5-2.1-0.7-3.2c-0.5,0-1,0.1-1.5,0.1c-0.3,0-0.7,0-1,0
			c-0.8-0.2-1.1-0.9-0.5-1.5c0.3-0.3,0.7-0.5,1.1-0.7c0.4-0.2,0.8-0.3,1.3-0.5c-0.1-0.4-0.1-0.8-0.2-1.2c-0.2-1.5,0.8-2.3,1.9-2.6
			c0.8-0.2,1.4,0.1,1.8,0.9C209.2,162.7,209.4,163.4,209.6,164.1z"/>
	</g>
	<g>
		<g>
			<path class="st23" d="M155.4,166.4c-0.8-0.6-1.5-1.1-2.2-1.6c-4.3-3.2-7.8-7.2-10.9-11.6c-4.7-6.7-8.1-14-10.7-21.7
				c-2.2-6.5-3.8-13.1-4.7-19.9c-0.7-5.2-0.9-10.5-0.4-15.7c0.4-4.1,1.3-8.2,3.2-11.9c1.3-2.5,2.9-4.7,5-6.4c2-1.6,4.1-2.6,6.7-2.8
				c2.2-0.2,4.2,0.3,6.2,1.3c2.8,1.4,4.9,3.6,6.8,6c2.9,3.8,5,8.1,6.6,12.6c1.9,5.2,3.1,10.6,3.9,16.1c1,7.3,1.2,14.6,0.9,21.9
				c-0.3,8.8-1.4,17.5-3.4,26.1c-0.1,0.3-0.1,0.6-0.2,0.8c0,0.1,0,0.1,0.1,0.2c2,1.7,4.1,3.1,6.6,3.7c2,0.5,3.1,0,4.2-1.7
				c1.1-1.7,1.9-3.6,2.5-5.5c1.7-5.3,3.2-10.7,4.8-16.1c0.1-0.5,0.1-0.9-0.2-1.4c-3.1-5.5-4.3-11.3-3.9-17.5
				c0.2-2.7,0.5-5.3,1.4-7.9c1.1-3.3,2.9-6.2,5.7-8.3c4-3.1,9.3-3.5,13.7-0.7c5.2,3.4,7.5,9.9,5.6,16c-1.2,3.9-3.6,7-6.9,9.3
				c-1.3,0.9-2.8,1.6-4.2,2.4c-0.1,0.1-0.3,0.1-0.5,0.2c0.4,1.7,0.8,3.3,1.4,4.8c0.8,2,1.9,3.8,3.4,5.3c0.5,0.5,1.1,0.9,1.8,1.3
				c1.3,0.7,2.7,0.7,4,0.1c1.6-0.7,2.8-1.9,3.8-3.3c0.9-1.3,1.8-2.6,2.5-4c2.2-4.4,4.1-8.9,5.9-13.4c0.2-0.5,0.2-1,0.1-1.6
				c-0.6-3.4-1.2-6.9-1.6-10.4c-0.3-2.1-0.4-4.3-0.5-6.5c-0.1-2-0.3-4.1-0.4-6.2c-1-0.2-2.1-0.3-3.2-0.5c-2.8-0.4-5.7-0.8-8.5-1.2
				c-1.9-0.3-3.8-0.5-5.7-0.6c-2.1-0.2-4.1-0.3-6.2-0.3c-5.4,0.1-10.5,1.2-15.4,3.4c-1.1,0.5-2.1,1.1-3.1,1.6
				c-0.2,0.1-0.3,0.2-0.5,0.3c-0.5,0.2-1.1,0.2-1.5-0.1c-0.5-0.4-0.6-1-0.5-1.5c0.1-0.4,0.3-0.9,0.6-1.3c0.7-0.7,1.4-1.5,2.2-2.1
				c2.8-2.1,6-3.5,9.4-4.6c5.3-1.7,10.7-2.6,16.2-2.6c4.3,0,8.6,0.5,12.9,1.2c1.1,0.2,2.1,0.3,3.2,0.5c0.1-1.2,0.1-2.4,0.2-3.6
				c0.1-3.4,0.5-6.7,1.4-10c0.5-1.8,1.1-3.5,2.1-5.1c0.6-0.9,1.3-1.8,2.2-2.4c2.3-1.6,5.1-1.2,6.7,1.1c0.9,1.2,1.3,2.7,1.6,4.1
				c0.6,2.5,0.9,5.1,1.1,7.6c0.3,3.5,0.6,6.9,1,10.4c0.4,0.1,0.7,0.1,1.1,0.2c3.4,0.1,6.9,0.1,10.3-0.2c2-0.2,3.9-0.7,5.7-1.6
				c0.5-0.3,1.1-0.5,1.7-0.7c0.2-0.1,0.4-0.1,0.5-0.2c0.9-0.2,1.7,0.1,2.1,0.8c0.4,0.7,0.3,1.5-0.3,2.2c-1.2,1.3-2.5,2.3-4.1,3.1
				c-2.3,1.2-4.8,1.7-7.3,2.3c-2.2,0.5-4.5,0.6-6.8,0.6c-0.7,0-1.5,0-2.3,0c0.1,1.3,0.2,2.5,0.3,3.7c0.3,3.6,0.7,7.3,1.1,10.9
				c0.9,9.1,2.7,18,5.9,26.5c1.1,2.8,2.4,5.4,4.2,7.8c0.6,0.9,1.4,1.7,2.2,2.4c1.8,1.5,3.5,1.3,5.2-0.4c1-1,1.6-2.4,2.1-3.7
				c0.9-2.2,1.8-4.5,2.7-6.7c0.1-0.3,0.3-0.7,0.6-1c0.5-0.6,1.2-0.8,1.9-0.5c0.6,0.3,1,0.9,0.9,1.6c0,0.3-0.1,0.5-0.2,0.7
				c-0.9,2.6-1.7,5.1-2.7,7.6c-0.7,2-1.8,3.8-3.2,5.4c-1.4,1.8-3.2,3.1-5.5,3.7c-1.8,0.4-3.5,0.3-5.3-0.2c-3.5-0.9-6.5-2.7-9.2-5.1
				c-5.4-4.7-9.1-10.5-11.5-17.2c-0.8-2.2-1.4-4.3-2.1-6.5c-0.1-0.3-0.2-0.7-0.4-1.2c-0.9,2.1-1.7,4.1-2.5,6c-0.9,2-1.7,4.1-2.7,6.1
				c-1,2.2-2.3,4.3-3.9,6.1c-2.8,3.2-6.4,4.6-10.6,4.4c-2.7-0.1-5.2-1.1-7.5-2.6c-1.4-1-2.7-2.1-3.9-3.3c-0.2-0.2-0.4-0.4-0.7-0.7
				c-0.1,0.2-0.2,0.4-0.2,0.5c-1.3,5.3-2.6,10.7-4,16c-0.4,1.6-1,3.2-1.7,4.7c-1.6,3.2-4.1,5.1-7.8,5.6c-2.5,0.3-4.9,0-7.2-0.7
				c-0.9-0.3-1.7-0.6-2.7-0.9c-0.1,0.2-0.2,0.5-0.3,0.7c-2.5,8-5.4,15.9-9.3,23.4c-3.4,6.6-7.4,12.8-12.4,18.3
				c-3.6,4-7.5,7.5-12.2,9.9c-3.9,2-7.9,3.3-12.4,3c-1.2-0.1-2.3-0.2-3.5-0.4c-0.7-0.1-1.1-0.6-1.2-1.2c0-0.6,0.2-1,1-1.2
				c0.7-0.2,1.4-0.3,2.1-0.4c6.1-0.4,11.4-2.9,16.1-6.6c4.6-3.6,8.3-8,11.7-12.8c5.2-7.3,9.1-15.4,12.2-23.8
				C153,174,154.1,170.2,155.4,166.4z M157.8,155.5c0.1-0.3,0.2-0.5,0.2-0.7c1.6-7.8,2.4-15.7,2.6-23.6c0.1-4.1,0-8.3-0.3-12.4
				c-0.3-4.9-0.9-9.8-2-14.6c-1.1-5.2-2.8-10.3-5.5-15c-1.4-2.4-3-4.7-5.1-6.5c-0.9-0.8-1.8-1.5-2.9-1.9c-1.9-0.8-3.7-0.6-5.4,0.7
				c-1.5,1.2-2.5,2.8-3.3,4.5c-1.3,3-1.8,6.1-1.9,9.3c-0.2,4.8,0.3,9.6,1.4,14.3c3,12.9,7.9,25,15,36.3c1.9,3.1,3.9,6,6.3,8.8
				C157.2,154.9,157.4,155.2,157.8,155.5z M190.6,128.5c0.2-0.1,0.4-0.1,0.5-0.2c1.3-0.6,2.5-1.3,3.6-2.3c3-2.6,4.3-5.8,3.7-9.8
				c-0.3-2.4-1.4-4.3-3.6-5.6c-1.3-0.8-2.8-0.4-3.6,0.9c-0.7,1.1-0.9,2.3-1,3.5c-0.4,3.7-0.3,7.4,0,11.1
				C190.4,126.9,190.5,127.7,190.6,128.5z"/>
			<path class="st23" d="M274.2,148.4c-1.2-1.4-2.5-2.9-3.7-4.3c-3.4-4-6.9-7.8-9.9-12.1c-2.3-3.2-4.4-6.7-5.7-10.4
				c-1-2.7-1.6-5.5-1.5-8.4c0.2-5.5,3.3-10.3,8.3-12.3c5.9-2.4,15.1,1.3,15.3,10.2c0,0.8-0.1,1.6-0.3,2.3c-0.2,0.6-0.6,1.2-1.3,1.3
				c-0.7,0.1-1.3-0.2-1.6-0.8c-0.7-1-1.4-2.1-2-3.2c-0.7-1.1-1.5-2.1-2.7-2.8c-0.6-0.4-1.3-0.6-2-0.9c-1.7-0.7-4.1,1.1-4.4,2.9
				c-0.2,1.5,0.2,2.8,0.9,4.1c1,1.7,2.2,3.2,3.5,4.7c2.1,2.4,4.5,4.5,6.8,6.6c3,2.8,6,5.6,8.9,8.3c0.1,0.1,0.3,0.3,0.5,0.4
				c1.1-1.3,2.2-2.5,3.4-3.8c2.1-2.3,4.6-4.2,7.3-5.7c2.2-1.2,4.5-1.9,6.9-2c3.9-0.2,7,1.3,9.1,4.6c1.2,1.9,1.8,4,2.1,6.2
				c0.1,0.7,0.2,1.4,0.3,2.2c0,0.4,0.1,0.8,0,1.1c-0.1,0.8-0.6,1.4-1.3,1.5c-0.8,0.2-1.5-0.1-1.9-0.7c-0.2-0.3-0.3-0.7-0.4-1.1
				c-0.5-1.7-1-3.5-1.5-5.2c-0.3-1-0.9-1.9-1.8-2.6c-1.3-1-2.9-1.3-4.5-1.2c-2.3,0.2-4.4,1.2-6.3,2.4c-3.1,2-5.7,4.5-8.1,7.4
				c-0.1,0.1-0.1,0.2-0.2,0.3c0.9,1,1.8,2,2.7,3.1c2.2,2.7,4.2,5.5,5.6,8.7c1.4,3.3,2.1,6.8,1.7,10.4c-0.5,4.3-2,8.3-5.4,11.2
				c-3,2.7-6.6,4-10.6,3.6c-3.1-0.3-5.7-1.7-7.5-4.3c-1.3-1.9-2-4-2.2-6.3c-0.3-3.7,0.4-7.3,1.7-10.8
				C273,151.5,273.6,150,274.2,148.4z M277.1,152.4c-1,2.2-1.7,4.4-2,6.8c-0.2,1.9-0.1,3.9,0.6,5.7c0.3,0.8,0.7,1.6,1.3,2.2
				c1.2,1.2,2.7,1.3,4,0.3c0.8-0.6,1.3-1.4,1.5-2.4c0.3-1.6,0.2-3.2-0.6-4.7c-1.3-2.6-2.8-5.1-4.4-7.5
				C277.4,152.7,277.3,152.6,277.1,152.4z"/>
			<path class="st23" d="M250,64.8c1.8,0,3.2,0.7,4.4,1.9c1.5,1.5,2.3,3.3,2.6,5.4c0.4,3.9-0.9,7.2-3.1,10.3
				c-0.6,0.8-1.4,1.3-2.3,1.6c-1.4,0.4-2.9-0.1-3.6-1.4c-0.6-1-0.7-2-0.5-3.1c0.1-0.5,0.1-1.1,0.2-1.6c0.1-0.8,0-1.6-0.4-2.4
				c-0.4-0.9-0.7-1.8-1.1-2.6c-0.5-1.3-0.9-2.7-0.6-4.2C246,66.2,248.1,64.7,250,64.8z"/>
		</g>
		<g>
			<path class="st23" d="M134.6,276.8c1.3,0.1,2.6,0.3,3.8,0.4c3,0.2,6,0.3,8.9,0.6c1.8,0.2,3.7,0.5,5.4,1c4.6,1.4,7.3,4.6,8.8,9.1
				c0.8,2.5,1.1,5,1.2,7.6c0.2,4.2-0.2,8.3-0.7,12.5c-0.6,5.8-1.3,11.6-1.7,17.4c-0.5,6-0.4,12,0.3,18c0.5,4.5,1.5,8.8,3.5,12.9
				c0.4,0.9,0.9,1.7,1.4,2.5c0.3,0.4,0.6,0.8,0.9,1.1c0.7,0.7,0.9,0.7,1.5-0.2c0.6-0.9,1.1-1.9,1.6-2.9c1.4-3.2,2.5-6.6,3.3-9.9
				c1.5-5.9,3-11.8,4.6-17.6c0.2-0.7,0.1-1.3-0.1-2c-1.9-5.8-2.8-11.7-2.8-17.8c0-2.9,0.4-5.8,1.7-8.5c0.5-1.1,1.1-2.1,2-2.9
				c3.1-2.8,7.7-1.8,9.4,2c0.7,1.5,1,3.1,1,4.7c0.1,2.5,0.2,5.1,0.1,7.6c-0.1,4.4-0.2,8.8,0.4,13.2c0.6,4.1,1.6,8.1,3.8,11.7
				c0.7,1.1,1.5,2.2,2.5,3.1c1.4,1.2,2.2,1.2,3.1-0.4c1.1-1.8,2.1-3.7,3-5.6c2.6-5.9,5-11.8,7.5-17.6c0.2-0.5,0.2-1,0.1-1.5
				c-0.5-3.3-0.8-6.6-0.5-10c0.2-1.7,0.5-3.5,1.2-5.1c0.6-1.3,1.5-2.4,2.8-3.1c2.5-1.3,5.5-0.5,7.1,2c0.8,1.2,1.3,2.5,1.6,3.9
				c0.6,2.6,1.1,5.3,1.5,8c0.5,3.3,0.8,6.7,1.3,10c1.1,7.8,2.8,15.5,6.2,22.6c0.8,1.8,1.9,3.4,3,5.1c0.5,0.8,1.2,1.4,1.8,2.1
				c0.5,0.5,0.8,0.5,1.2-0.1c0.5-0.7,0.9-1.4,1.2-2.1c0.8-2.1,1.7-4.2,2.3-6.4c2.1-7.3,4.1-14.6,6.2-21.8c0.2-0.7,0.2-1.3,0-2
				c-0.9-3.1-1.6-6.3-1.6-9.6c0-3.2,0.3-6.4,1.3-9.5c0.5-1.5,1.2-2.9,2.4-3.9c2-1.7,4.5-1.7,6.4,0c1.2,1.1,1.9,2.4,2.4,3.9
				c0.5,1.6,0.8,3.3,1.1,4.9c0.7,3.5,0.8,7.1,1.2,10.6c0.8,5.9,2,11.8,4.6,17.3c1.1,2.3,2.5,4.4,4.6,6c0.9,0.7,1.9,1.4,3.1,1.7
				c1.6,0.4,3,0.2,4.1-1.1c0.7-0.9,1.3-1.8,1.8-2.8c1.7-3.5,2.6-7.3,3.2-11.1c0.2-1.3,0.3-2.5,0.5-3.8c-0.4-0.3-0.7-0.5-1.1-0.8
				c-4.2-2.9-8.2-6.1-11.5-10c-2.5-2.9-4.4-6.1-5.3-9.9c-1.5-6.2,0-11.7,4.4-16.4c2.7-2.9,6.7-3.6,10.5-2c1.6,0.6,2.8,1.7,3.9,2.9
				c2.1,2.4,3.4,5.3,4.3,8.3c1.3,4.1,1.9,8.4,1.9,12.7c0,0.8,0,1.5,0,2.2c4.5,2.1,8.9,4.2,13.4,6.4c0.1-0.5,0.3-0.9,0.4-1.4
				c0.7-2.3,1.4-4.6,2.1-6.9c0.2-0.5,0.1-0.9-0.2-1.4c-2-2.9-3.6-6.1-4.8-9.4c-1.2-3.2-1.9-6.5-2.1-9.9c-0.3-4.3,0.3-8.4,2-12.4
				c1.1-2.6,2.7-4.7,4.9-6.5c5.2-4.5,12.9-3.9,17.3,1.6c3.3,4,4.2,8.5,2.6,13.4c-1.8,5.3-4.8,9.8-8.9,13.6c-0.2,0.2-0.4,0.3-0.6,0.5
				c0,0.1,0,0.2,0.1,0.3c2.2,3.3,4.3,6.7,7.4,9.3c1.1,0.9,2.2,1.8,3.5,2.5c3.1,1.7,6,1.4,8.8-0.7c1.6-1.3,2.8-2.9,3.8-4.7
				c1.6-3,2.5-6.2,2.9-9.5c0.6-4,0.8-8,0.3-12.1c-0.2-1.3-0.2-2.6-0.2-3.9c0-0.5,0.1-1.1,0.3-1.6c0.7-1.5,2.6-1.7,3.5-0.3
				c0.4,0.5,0.6,1.2,0.7,1.8c0.2,1.3,0.4,2.6,0.5,3.9c0.2,2.6,0.4,5.1,0.4,7.7c0.1,6.8-1.4,13.2-4.6,19.2c-2.5,4.6-6.2,7.9-11.4,9.4
				c-3.9,1.2-7.7,0.9-11.5-0.4c-3.9-1.3-7.2-3.5-10.2-6.3c-0.4-0.4-0.7-0.7-1.1-1.1c0,0-0.1,0-0.3-0.1c-0.7,2.4-1.4,4.9-2.1,7.4
				c0.3,0.2,0.5,0.3,0.8,0.5c3.6,2.3,6.9,4.9,9.8,8c3.6,4,6,8.6,7.5,13.8c1.3,4.6,1.6,9.2,0.8,13.9c-0.6,3.1-1.7,6-3.7,8.5
				c-2.2,2.7-4.9,4.4-8.4,4.9c-2.5,0.4-4.9,0.3-7.4-0.4c-3.4-1-5.7-3.2-7.4-6.2c-1.3-2.2-1.9-4.6-2.4-7c-1-5.5-0.4-11,0.7-16.4
				c0.3-1.5,0.6-3,1-4.5c0.1-0.6,0.1-0.9-0.4-1.2c-1.9-1.3-3.8-2.6-5.7-3.8c-1.4-0.9-2.8-1.7-4.3-2.6c-0.1,0.4-0.2,0.7-0.3,1
				c-0.9,3.2-1.7,6.5-2.6,9.7c-0.7,2.2-1.6,4.4-2.9,6.3c-3.1,4.5-7.2,6.1-12.3,5c-1.5-0.3-2.9-0.8-4.2-1.5c-3.8-1.8-6.6-4.5-9.1-7.8
				c-1.8-2.4-3.3-5.1-4.6-7.8c-0.2-0.4-0.4-0.7-0.6-1.3c-0.1,0.5-0.2,0.8-0.3,1.2c-1.3,5-2.6,10.1-4,15.1c-0.5,1.9-1.1,3.9-1.7,5.8
				c-0.6,1.8-1.3,3.5-2.4,5c-2,2.7-5,3.7-8.2,2.6c-1.8-0.6-3.3-1.6-4.6-2.9c-4.7-4.5-8.2-10-11-15.8c-2.1-4.3-3.8-8.7-5.3-13.2
				c-0.1-0.2-0.2-0.5-0.3-0.8c-0.2,0.4-0.3,0.6-0.4,0.8c-1.7,4.4-3.3,8.8-5,13.2c-0.7,1.9-1.5,3.7-2.6,5.4c-0.6,0.9-1.3,1.8-2.1,2.4
				c-2.3,2-5.1,2.3-8,1.5c-2.6-0.7-4.7-2.3-6.7-4.1c-2.4-2.2-4.2-4.8-5.8-7.6c-0.2-0.3-0.3-0.6-0.6-1.1c-0.1,0.5-0.2,0.9-0.3,1.2
				c-1.6,6.6-3.2,13.2-4.8,19.7c-0.5,2-1.1,4.1-2.1,5.9c-0.5,1-1.1,2-1.8,2.8c-2,2.2-4.4,3-7.3,2.2c-2.5-0.7-4.4-2.2-6.2-4
				c-2.2-2.2-3.8-4.9-5.2-7.6c-2.4-4.6-4-9.5-5-14.6c-1.1-5.6-1.6-11.3-1.6-17c0-7.6,0.9-15.1,2.2-22.6c0.5-2.8,0.9-5.6,1.3-8.4
				c0.2-1.6,0.3-3.2-0.2-4.8c-0.2-0.6-0.5-1.1-1-1.5c-1.1-1-2.4-1.5-3.8-1.8c-2.4-0.5-4.8-0.8-7.2-1.2c-1.1-0.2-2.3-0.3-3.5-0.5
				c-0.1,1-0.3,1.9-0.4,2.8c-1,7.2-2.6,14.3-5.2,21.2c-1.8,4.6-4,9-7.1,12.8c-2.3,2.9-5,5.1-8.5,6.4c-4.9,1.8-9.6,1.3-14-1.3
				c-6.1-3.5-9.9-8.9-12-15.6c-1.1-3.4-1.5-7-1.5-10.6c0.1-6,1.6-11.5,5.3-16.3c1.6-2.1,3.6-3.8,6.1-4.7c4.1-1.5,8.1-0.9,11.7,1.5
				c3.7,2.4,6.2,5.9,7.4,10.2c0.5,1.7,0.6,3.5,0.1,5.3c-0.1,0.5-0.3,1-0.6,1.4c-0.8,1.1-2.1,1-2.8-0.1c-0.3-0.5-0.5-1.2-0.7-1.8
				c-0.8-3.2-2.3-6-4.7-8.3c-1-0.9-2.1-1.7-3.4-2.1c-2-0.6-3.6-0.1-4.8,1.7c-1.1,1.6-1.6,3.3-1.9,5.2c-0.6,3.3-0.5,6.6,0.1,10
				c0.9,4.9,2.7,9.5,5.2,13.7c0.7,1.2,1.6,2.3,2.7,3.2c2.8,2.3,6.5,2.1,9.3,0.2c1.6-1,2.9-2.4,4-3.9c3.1-3.8,5.3-8.2,6.9-12.8
				c2.1-5.8,3.5-11.7,4.5-17.8c0.1-0.3,0.1-0.7,0.1-1.1c-0.8-0.2-1.6-0.5-2.4-0.7c-3.6-1.1-6.9-2.7-9.7-5.3c-4-3.7-6.2-8.3-6.3-13.7
				c-0.1-3.4,1-6.5,3.5-8.9c2.1-2.1,4.6-2.8,7.5-2.2c3.3,0.6,5.8,2.4,7.6,5.1c1.7,2.4,2.6,5.2,3.2,8c0.8,3.9,1,7.9,1,12
				C134.5,276.5,134.6,276.6,134.6,276.8z M130.6,276c0.1-0.2,0.1-0.2,0.1-0.3c0-0.4,0-0.8,0-1.2c0.1-3.5-0.2-7.1-1-10.5
				c-0.5-2.1-1.3-4.1-2.5-5.9c-1-1.5-2.4-2.5-4.1-3.1c-2.2-0.6-4,0-5.2,1.9c-0.6,0.9-0.9,1.9-1.1,2.9c-0.3,2.5,0.3,4.8,1.4,7
				C120.7,272.1,125.1,274.7,130.6,276z M300.5,334.1c-0.1,0.2-0.2,0.3-0.2,0.4c-1.2,5-1.9,10.1-0.9,15.3c0.4,2.2,1,4.4,2.2,6.4
				c0.7,1.2,1.6,2.2,2.8,2.8c1.5,0.9,3.7,0.7,5-0.6c0.3-0.3,0.6-0.7,0.7-1.1c0.2-0.8,0.4-1.7,0.4-2.5c-0.1-4.4-1.2-8.6-3.4-12.5
				c-1.5-2.6-3.4-4.9-5.4-7.1C301.2,334.8,300.9,334.5,300.5,334.1z M312.7,292.4c0.2-0.1,0.2-0.1,0.3-0.1c0.2-0.2,0.3-0.4,0.5-0.6
				c1.7-2.1,3.2-4.4,4.4-6.9c0.6-1.2,1.1-2.5,1.5-3.8c0.6-2.3,0.8-4.6-0.2-6.8c-0.7-1.6-1.7-3.1-3.2-4.1c-2.5-1.7-6.5-0.6-7.3,2.6
				c-0.1,0.4-0.2,0.7-0.3,1.1c-0.6,2.6-0.5,5.2,0.1,7.7C309.5,285.3,310.9,288.9,312.7,292.4z M282.1,305.1c-0.1-3.8-0.3-7.3-1-10.9
				c-0.4-2-1-3.9-2-5.7c-0.6-1-1.2-2-2.2-2.7c-1.9-1.4-4.9-1.5-6.4,1.4c-1.2,2.4-1.4,4.8-0.7,7.3c0.6,2.5,2.2,4.4,4.1,5.9
				c2.3,1.9,4.9,3.3,7.6,4.5C281.7,305,281.8,305,282.1,305.1z"/>
			<path class="st23" d="M254.9,282.1c0.2,3.8-2.6,7.1-6.4,7.3c-3.8,0.2-7.1-2.6-7.3-6.4c-0.3-3.8,2.6-7.1,6.4-7.3
				C251.4,275.5,254.7,278.3,254.9,282.1z"/>
		</g>
	</g>
</g>
</svg>
